<?xml version="1.0" encoding="utf-8"?>
<!-- Generator: Adobe Illustrator 23.0.4, SVG Export Plug-In . SVG Version: 6.00 Build 0)  -->
<svg version="1.1" id="圖層_1" xmlns="http://www.w3.org/2000/svg" xmlns:xlink="http://www.w3.org/1999/xlink" x="0px" y="0px"
	 viewBox="0 0 15 14" style="enable-background:new 0 0 15 14;" xml:space="preserve">
<style type="text/css">
	.st0{fill:#4FCACA;}
</style>
<path id="XMLID_122_" class="st0" d="M10.9,0.1c-1.3,0-2.6,0.6-3.4,1.6c-0.8-1-2.1-1.6-3.4-1.6C1.8,0.1,0,1.9,0,4.2
	c0,2.8,2.6,5.1,6.4,8.7l1.1,1l1.1-1C12.5,9.4,15,7.1,15,4.2C15,1.9,13.2,0.1,10.9,0.1z M7.6,11.8L7.6,11.8H7.4
	C3.9,8.5,1.5,6.4,1.5,4.2c0-1.5,1.1-2.6,2.6-2.6c1.2,0,2.3,0.7,2.7,1.8h1.4c0.4-1,1.5-1.8,2.7-1.8c1.5,0,2.6,1.1,2.6,2.6
	C13.5,6.4,11.1,8.5,7.6,11.8z"/>
</svg>
