<svg xmlns="http://www.w3.org/2000/svg" width="161.451" height="140.905" viewBox="0 0 161.451 140.905">
  <g id="img_complete" transform="translate(-1088.935 -970.646)">
    <g id="Group_38" data-name="Group 38" transform="translate(1123.112 1007.097)">
      <path id="Path_85" data-name="Path 85" d="M1203.425,1006.038a1.634,1.634,0,0,1-3.267,0V991.355h-31a1.632,1.632,0,1,1,0-3.264h32.633a1.635,1.635,0,0,1,1.632,1.632v16.315Zm-70.168-17.947a1.632,1.632,0,0,1,0,3.264h-31v14.683a1.632,1.632,0,0,1-3.264,0V989.723a1.632,1.632,0,0,1,1.632-1.632Z" transform="translate(-1098.988 -965.235)" fill="#4bc9c9" fill-rule="evenodd"/>
      <path id="Path_86" data-name="Path 86" d="M1120.781,998.074a1.632,1.632,0,0,1,0-3.264h32.633a1.635,1.635,0,0,1,1.632,1.632v52.222a1.637,1.637,0,0,1-1.632,1.632h-32.633a1.634,1.634,0,0,1,0-3.267h31V998.074Z" transform="translate(-1050.609 -949.112)" fill="#4bc9c9" fill-rule="evenodd"/>
      <path id="Path_87" data-name="Path 87" d="M1133.256,994.81a1.632,1.632,0,0,1,0,3.264h-31v48.955h31a1.634,1.634,0,0,1,0,3.267H1100.62a1.634,1.634,0,0,1-1.632-1.632V996.442a1.632,1.632,0,0,1,1.632-1.632Z" transform="translate(-1098.988 -949.112)" fill="#4bc9c9" fill-rule="evenodd"/>
      <path id="Path_88" data-name="Path 88" d="M1136.622,988.764v81.6a1.634,1.634,0,0,1-1.632,1.632h-22.852a1.634,1.634,0,0,1-1.632-1.632v-81.6a1.635,1.635,0,0,1,1.632-1.635h22.852a1.635,1.635,0,0,1,1.632,1.635Zm-3.264,79.97V990.4H1113.77v78.338Z" transform="translate(-1071.349 -967.543)" fill="#4bc9c9" fill-rule="evenodd"/>
      <path id="Path_89" data-name="Path 89" d="M1132.978,998.07a1.626,1.626,0,1,1-2.308-2.291,6.537,6.537,0,0,0,0-9.233,6.517,6.517,0,0,0-9.217,0l-.007.007a6.5,6.5,0,0,0-1.911,4.607v4.9a1.632,1.632,0,0,1-3.263,0v-4.9a9.766,9.766,0,0,1,2.873-6.908l.007-.007a9.779,9.779,0,0,1,13.829,13.83Z" transform="translate(-1057.52 -981.368)" fill="#4bc9c9" fill-rule="evenodd"/>
      <path id="Path_90" data-name="Path 90" d="M1111.845,995.779a1.626,1.626,0,1,1-2.308,2.291,9.775,9.775,0,0,1,0-13.833l.1-.092a9.752,9.752,0,0,1,13.728.1l.006.007a9.769,9.769,0,0,1,2.877,6.908v4.9a1.634,1.634,0,0,1-3.267,0v-4.9a6.5,6.5,0,0,0-1.911-4.607l-.006-.007a6.523,6.523,0,0,0-9.149-.068l-.068.072a6.513,6.513,0,0,0,0,9.233Z" transform="translate(-1080.552 -981.368)" fill="#4bc9c9" fill-rule="evenodd"/>
    </g>
    <g id="Group_39" data-name="Group 39" transform="translate(1131.731 970.646)">
      <path id="Path_91" data-name="Path 91" d="M1117.433,979.465a1.808,1.808,0,1,1-3.617,0v-7.01a1.808,1.808,0,1,1,3.617,0Z" transform="translate(-1072.025 -970.646)" fill="#4bc9c9" fill-rule="evenodd"/>
      <path id="Path_92" data-name="Path 92" d="M1123.249,981.316a1.8,1.8,0,0,1-3.124-1.8l3.505-6.069a1.8,1.8,0,1,1,3.121,1.8Z" transform="translate(-1057.456 -966.075)" fill="#4bc9c9" fill-rule="evenodd"/>
      <path id="Path_93" data-name="Path 93" d="M1113.584,979.521a1.8,1.8,0,0,1-3.124,1.8l-3.5-6.069a1.8,1.8,0,0,1,3.124-1.8Z" transform="translate(-1089.053 -966.075)" fill="#4bc9c9" fill-rule="evenodd"/>
      <path id="Path_94" data-name="Path 94" d="M1110.291,981.489a1.8,1.8,0,0,1-1.792,3.124l-6.072-3.505a1.8,1.8,0,1,1,1.8-3.121Z" transform="translate(-1101.523 -953.605)" fill="#4bc9c9" fill-rule="evenodd"/>
      <path id="Path_95" data-name="Path 95" d="M1127.026,984.613a1.8,1.8,0,0,1-1.795-3.124l6.068-3.5a1.8,1.8,0,1,1,1.795,3.121Z" transform="translate(-1046.798 -953.605)" fill="#4bc9c9" fill-rule="evenodd"/>
    </g>
    <path id="Path_96" data-name="Path 96" d="M1142.58,979.656l3.039,6.031,6.031,3.039a1.628,1.628,0,0,1,.721,2.186,1.575,1.575,0,0,1-.721.721l-6.031,3.039-3.039,6.034a1.627,1.627,0,0,1-2.907,0l-3.039-6.034-6.031-3.039a1.628,1.628,0,0,1,0-2.907l6.031-3.039,3.039-6.031a1.628,1.628,0,0,1,2.907,0Zm.374,7.976-1.829-3.624-1.822,3.624a1.606,1.606,0,0,1-.721.721l-3.627,1.829,3.627,1.826a1.64,1.64,0,0,1,.721.721l1.822,3.627,1.829-3.627a1.638,1.638,0,0,1,.721-.721l3.627-1.826-3.627-1.829A1.587,1.587,0,0,1,1142.954,987.632Z" transform="translate(97.84 19.479)" fill="#4bc9c9" fill-rule="evenodd"/>
    <path id="Path_97" data-name="Path 97" d="M1101.807,996.706l3.039,6.031,6.031,3.039a1.631,1.631,0,0,1,.721,2.186,1.608,1.608,0,0,1-.721.721l-6.031,3.039-3.039,6.035a1.634,1.634,0,0,1-2.186.72,1.608,1.608,0,0,1-.721-.72l-3.039-6.035-6.031-3.039a1.628,1.628,0,0,1-.721-2.186,1.609,1.609,0,0,1,.721-.721l6.031-3.039,3.039-6.031a1.627,1.627,0,0,1,2.907,0Zm.374,7.976-1.829-3.624-1.826,3.624a1.622,1.622,0,0,1-.721.72l-3.627,1.829,3.627,1.825a1.606,1.606,0,0,1,.721.72l1.826,3.628,1.829-3.628a1.609,1.609,0,0,1,.721-.72l3.627-1.825-3.627-1.829A1.609,1.609,0,0,1,1102.181,1004.682Z" transform="translate(0 60.39)" fill="#4bc9c9" fill-rule="evenodd"/>
  </g>
</svg>
