<svg xmlns="http://www.w3.org/2000/svg" width="82.99" height="23.6" viewBox="0 0 82.99 23.6">
  <g id="Group_15" data-name="Group 15" transform="translate(-3128.384 -2587.292)">
    <path id="Path_16" data-name="Path 16" d="M3169.861,2587.3q14.93,0,29.859,0a11.784,11.784,0,0,1,1.461,23.459,12.817,12.817,0,0,1-1.838.13q-29.425.01-58.849,0a11.97,11.97,0,0,1-9.122-3.966,11.813,11.813,0,0,1,7.545-19.594,9.509,9.509,0,0,1,1.247-.031Q3155.013,2587.295,3169.861,2587.3Zm-9.369,12.635c-1.425-1.918-2.813-3.66-4.052-5.5a2.385,2.385,0,0,0-2.527-1.257c-.732.1-.8.077-.8.826,0,2.968-.012,5.935,0,8.9.009,1.755-.366,1.783,1.808,1.75.7-.011.847-.172.849-.888,0-1.773,0-3.546,0-5.32,0-.15.019-.3.037-.561,1.43,1.945,2.846,3.756,4.125,5.66a2.217,2.217,0,0,0,2.4,1.11.5.5,0,0,1,.054,0c.474-.014.708-.2.7-.732-.026-1.773-.01-3.546-.01-5.319,0-1.611-.007-3.221,0-4.831,0-.416-.151-.6-.574-.582s-.832,0-1.248,0c-.718,0-.77.052-.77.776C3160.491,2595.9,3160.492,2597.832,3160.492,2599.931Zm4.344-1.05q0,2.443,0,4.885c0,.74.133.879.889.884,1.122.008,2.244,0,3.365,0,.887,0,1.774.012,2.66-.008.617-.014.768-.186.774-.783,0-.4-.009-.8,0-1.194.014-.475-.187-.694-.679-.687-1.1.016-2.208,0-3.311,0s-1.086,0-1.126-1.119c-.019-.542.169-.671.679-.657,1.248.033,2.5.005,3.745.012.474,0,.706-.2.691-.686-.012-.416,0-.833,0-1.249-.008-.573-.167-.736-.748-.741-1.049-.008-2.1,0-3.148,0-1.225,0-1.209,0-1.212-1.249,0-.407.129-.531.531-.525,1.284.021,2.569.01,3.854.007.615,0,.716-.109.724-.736,0-.362,0-.724,0-1.085-.006-.667-.1-.765-.744-.765q-3.094,0-6.188,0c-.666,0-.754.088-.756.751Q3164.833,2596.412,3164.836,2598.881Zm11.759,0q0,1.981,0,3.962c0,1.911-.171,1.829,1.952,1.8.036,0,.072,0,.108-.007.4-.044.626-.223.608-.666-.021-.524.021-1.051-.012-1.573-.027-.434.128-.547.555-.561a9.067,9.067,0,0,0,2.3-.234,4.312,4.312,0,0,0-1.315-8.419q-1.655,0-3.311,0c-.777,0-.879.094-.882.863C3176.592,2595.663,3176.6,2597.273,3176.6,2598.883Zm14.22-.253c-.294,0-.521-.008-.747,0a15.693,15.693,0,0,0-2.264.126,2.949,2.949,0,0,0,.13,5.794c1.476.1,2.959.076,4.44.092a.688.688,0,0,0,.775-.769c0-1.646.049-3.293-.021-4.936a3.241,3.241,0,0,0-3.037-3.47,8.963,8.963,0,0,0-2.682.082c-1.291.2-1.287.26-.962,1.5.218.832.352.885,1.228.736a10.98,10.98,0,0,1,1.826-.154A1.207,1.207,0,0,1,3190.815,2598.63Zm7.178,1.125c-.4-.991-.726-1.849-1.08-2.7-.794-1.9-.324-1.554-2.336-1.583-.861-.012-1.007.211-.69,1,.833,2.078,1.678,4.152,2.489,6.239a1.311,1.311,0,0,1-.006.855c-.326.88-.718,1.735-1.071,2.6-.215.528-.068.754.493.771.434.014.87-.017,1.3.009a.858.858,0,0,0,.942-.629c.581-1.439,1.193-2.867,1.794-4.3.81-1.932,1.626-3.862,2.429-5.8.24-.58.114-.751-.52-.759-.416-.005-.834.027-1.248-.008a.866.866,0,0,0-.981.646C3199.046,2597.286,3198.543,2598.444,3197.993,2599.754Zm-58.348-.925q0,2.443,0,4.885c0,.767.15.928.911.935,1.1.01,2.208,0,3.311,0,.887,0,1.773.009,2.66,0,.664-.01.8-.156.8-.8,0-.4-.014-.8,0-1.194.023-.489-.193-.682-.678-.676-1.249.015-2.5-.017-3.745.016-.485.012-.617-.147-.613-.618.02-2.28.01-4.56.008-6.839,0-.271.008-.544-.018-.813a.516.516,0,0,0-.6-.541,12.887,12.887,0,0,1-1.356,0c-.526-.032-.7.2-.7.706C3139.656,2595.536,3139.645,2597.183,3139.645,2598.83Zm9.122.108c0,1.356-.006,2.713,0,4.07.01,1.568-.283,1.676,1.655,1.646.883-.014,1.006-.129,1.006-1q0-4.748,0-9.5c0-.127,0-.253,0-.38-.014-.385-.173-.606-.6-.587s-.868,0-1.3,0c-.657,0-.752.093-.753.755C3148.765,2595.609,3148.767,2597.273,3148.767,2598.938Z" fill="#00c43e"/>
    <path id="Path_17" data-name="Path 17" d="M3363.34,2647.951c0-2.1,0-4.032,0-5.965,0-.724.052-.774.77-.776.416,0,.833.015,1.249,0s.578.166.574.581c-.012,1.61,0,3.22,0,4.831,0,1.773-.016,3.547.01,5.319.008.531-.227.719-.7.732a.444.444,0,0,0-.054,0,2.217,2.217,0,0,1-2.4-1.11c-1.279-1.9-2.695-3.715-4.125-5.66-.018.26-.036.411-.037.561,0,1.773,0,3.546,0,5.319,0,.716-.152.877-.849.888-2.174.034-1.8.005-1.808-1.75-.015-2.968,0-5.935,0-8.9,0-.749.069-.729.8-.826a2.386,2.386,0,0,1,2.527,1.256C3360.527,2644.29,3361.915,2646.033,3363.34,2647.951Z" transform="translate(-202.848 -48.019)" fill="#fff"/>
    <path id="Path_18" data-name="Path 18" d="M3464.049,2647.284q0-2.47,0-4.94c0-.663.089-.75.756-.751q3.094,0,6.188,0c.646,0,.738.1.744.765,0,.362,0,.724,0,1.086-.007.627-.109.734-.724.736-1.285,0-2.57.014-3.854-.007-.4-.006-.532.118-.531.525,0,1.248-.013,1.248,1.212,1.249,1.049,0,2.1-.005,3.148,0,.581,0,.74.167.748.741.006.416-.009.833,0,1.249.014.484-.218.689-.691.686-1.249-.007-2.5.021-3.745-.012-.509-.013-.7.115-.679.657.039,1.118.01,1.119,1.125,1.12s2.208.011,3.311,0c.492-.007.693.211.679.687-.012.4,0,.8,0,1.194-.006.6-.157.769-.774.783-.886.02-1.773.008-2.66.008-1.122,0-2.244.005-3.365,0-.755-.005-.888-.144-.888-.884Q3464.048,2649.727,3464.049,2647.284Z" transform="translate(-299.213 -48.403)" fill="#fff"/>
    <path id="Path_19" data-name="Path 19" d="M3572.3,2647.287c0-1.61,0-3.22,0-4.83,0-.77.1-.863.882-.863q1.655,0,3.311,0a4.313,4.313,0,0,1,1.314,8.419,9.075,9.075,0,0,1-2.3.233c-.427.014-.582.127-.555.561.033.522-.009,1.049.012,1.573.018.443-.211.622-.608.666-.036,0-.072.006-.108.007-2.123.025-1.954.107-1.952-1.8Q3572.3,2649.268,3572.3,2647.287Z" transform="translate(-395.708 -48.404)" fill="#fff"/>
    <path id="Path_20" data-name="Path 20" d="M3659.41,2665.18a1.206,1.206,0,0,0-1.314-1,11,11,0,0,0-1.826.154c-.876.15-1.01.1-1.228-.736-.326-1.241-.33-1.306.961-1.5a8.973,8.973,0,0,1,2.683-.082,3.241,3.241,0,0,1,3.037,3.47c.069,1.643.019,3.291.021,4.936a.688.688,0,0,1-.775.769c-1.48-.016-2.964,0-4.44-.092a2.949,2.949,0,0,1-.13-5.794,15.69,15.69,0,0,1,2.264-.126C3658.889,2665.171,3659.116,2665.18,3659.41,2665.18Z" transform="translate(-468.594 -66.55)" fill="#fff"/>
    <path id="Path_21" data-name="Path 21" d="M3734.417,2666.808c.549-1.311,1.053-2.469,1.519-3.643a.866.866,0,0,1,.981-.646c.414.035.832,0,1.248.008.633.008.76.179.52.759-.8,1.935-1.618,3.865-2.429,5.8-.6,1.432-1.212,2.859-1.794,4.3a.858.858,0,0,1-.942.629c-.432-.026-.868,0-1.3-.009-.561-.017-.708-.243-.493-.771.353-.87.746-1.725,1.071-2.6a1.311,1.311,0,0,0,.005-.855c-.811-2.087-1.656-4.161-2.489-6.239-.317-.792-.171-1.016.69-1,2.012.029,1.542-.312,2.336,1.583C3733.691,2664.959,3734.021,2665.817,3734.417,2666.808Z" transform="translate(-536.424 -67.054)" fill="#fff"/>
    <path id="Path_22" data-name="Path 22" d="M3232.03,2647.17c0-1.646.011-3.293-.006-4.94-.006-.507.169-.738.7-.706a12.826,12.826,0,0,0,1.356,0,.516.516,0,0,1,.6.541c.025.269.017.542.017.813,0,2.28.012,4.56-.008,6.839,0,.47.127.63.613.618,1.248-.032,2.5,0,3.745-.015.485-.006.7.187.678.676-.019.4,0,.8,0,1.194,0,.64-.14.787-.8.8-.886.013-1.773,0-2.66,0-1.1,0-2.208.006-3.311,0-.761-.007-.91-.168-.911-.935Q3232.029,2649.613,3232.03,2647.17Z" transform="translate(-92.385 -48.34)" fill="#fff"/>
    <path id="Path_23" data-name="Path 23" d="M3316.011,2647.306q0-2.5,0-4.993c0-.662.1-.751.753-.755.434,0,.869.015,1.3,0s.587.2.6.587c0,.126,0,.253,0,.38q0,4.749,0,9.5c0,.875-.124.99-1.006,1-1.938.03-1.645-.078-1.655-1.646C3316,2650.02,3316.011,2648.663,3316.011,2647.306Z" transform="translate(-167.244 -48.368)" fill="#fff"/>
    <path id="Path_24" data-name="Path 24" d="M3597.889,2668.791c-1.238-.017-1.048.159-1.062-1.058-.008-.632.01-1.263-.006-1.895-.008-.323.1-.47.437-.444a11.411,11.411,0,0,1,1.448.1,1.638,1.638,0,0,1,1.291,1.9,1.685,1.685,0,0,1-1.674,1.394C3598.177,2668.792,3598.033,2668.791,3597.889,2668.791Z" transform="translate(-417.566 -69.618)" fill="#00c43e"/>
    <path id="Path_25" data-name="Path 25" d="M3676.6,2713.875c-.343,0-.686.013-1.028,0a.708.708,0,0,1-.1-1.406,21.98,21.98,0,0,1,2.322-.026c.085,0,.221.172.24.28.184,1.015.058,1.163-.95,1.164h-.487Z" transform="translate(-487.148 -111.541)" fill="#00c43e"/>
  </g>
</svg>
