<svg xmlns="http://www.w3.org/2000/svg" width="230" height="40" viewBox="0 0 230 40">
  <g id="logo" transform="translate(-137.021 -1011.294)">
    <g id="Group_1" data-name="Group 1" transform="translate(180.848 1011.294)">
      <path id="Path_1" data-name="Path 1" d="M235.125,1014.337a6.5,6.5,0,0,1,.153-1.568,1.588,1.588,0,0,1,.591-.922,2.758,2.758,0,0,1,1.248-.438,15.781,15.781,0,0,1,2.125-.115h6.176a20.132,20.132,0,0,1,4.884.507,7.272,7.272,0,0,1,3.263,1.706,6.879,6.879,0,0,1,1.84,3.158,17.528,17.528,0,0,1,.569,4.818,17.047,17.047,0,0,1-.613,4.887,7.894,7.894,0,0,1-1.883,3.319,7.507,7.507,0,0,1-3.263,1.89,16.786,16.786,0,0,1-4.8.6h-4.6v9.313a2.431,2.431,0,0,1-.657,1.66,2.811,2.811,0,0,1-2.19.738,2.714,2.714,0,0,1-2.19-.784,2.5,2.5,0,0,1-.657-1.613Zm5.694,12.679h4.6q2.8,0,3.833-1.291a6.767,6.767,0,0,0,1.029-4.2,7.041,7.041,0,0,0-.372-2.49,3.853,3.853,0,0,0-1.029-1.544,3.53,3.53,0,0,0-1.533-.784,8.384,8.384,0,0,0-1.927-.207h-4.6Z" transform="translate(-235.125 -1011.294)" fill="#394042"/>
      <path id="Path_2" data-name="Path 2" d="M306.091,1048.121a6.508,6.508,0,0,1-2.5,3.185,7.137,7.137,0,0,1-3.635.864,9.036,9.036,0,0,1-3.921-.841,8.441,8.441,0,0,1-3.044-2.457,11.778,11.778,0,0,1-1.971-3.958,18.665,18.665,0,0,1-.7-5.346,20.308,20.308,0,0,1,.81-6.187,11.589,11.589,0,0,1,2.146-4.049,7.6,7.6,0,0,1,3.088-2.206,10.238,10.238,0,0,1,3.635-.66,6.074,6.074,0,0,1,3.723,1.206,7.324,7.324,0,0,1,2.453,3.526v-1.911a2.484,2.484,0,0,1,.679-1.547,2.548,2.548,0,0,1,2.081-.819,2.71,2.71,0,0,1,2.08.841,2.4,2.4,0,0,1,.679,1.524v20.246a2.4,2.4,0,0,1-2.8,2.366,3.6,3.6,0,0,1-1.4-.227,2.444,2.444,0,0,1-.854-.592,1.867,1.867,0,0,1-.438-.774,2.982,2.982,0,0,1-.109-.773Zm-10.162-8.553q.043,4.141,1.468,5.96a4.747,4.747,0,0,0,3.964,1.82,3.981,3.981,0,0,0,3.723-2.07,11.171,11.171,0,0,0,1.139-5.664,12.352,12.352,0,0,0-1.248-5.847,4.154,4.154,0,0,0-3.7-2.252,4.514,4.514,0,0,0-3.942,1.933Q295.886,1035.428,295.929,1039.568Z" transform="translate(-265.664 -1019.688)" fill="#394042"/>
      <path id="Path_3" data-name="Path 3" d="M364.671,1047.691a8.136,8.136,0,0,1-.92,1.545,7.219,7.219,0,0,1-1.336,1.36,6.049,6.049,0,0,1-1.774.945,6.864,6.864,0,0,1-2.234.345,9.106,9.106,0,0,1-3.2-.553,7.387,7.387,0,0,1-2.606-1.637,7.7,7.7,0,0,1-1.774-2.743,10.475,10.475,0,0,1-.657-3.873v-13.646a1.679,1.679,0,0,1,.723-1.384,3.13,3.13,0,0,1,1.949-.553,3.331,3.331,0,0,1,1.993.553,1.654,1.654,0,0,1,.767,1.384v11.387a16.671,16.671,0,0,0,.175,2.582,4.9,4.9,0,0,0,.635,1.844,2.829,2.829,0,0,0,1.292,1.106,5.2,5.2,0,0,0,2.1.369,7.782,7.782,0,0,0,1.949-.231,3.332,3.332,0,0,0,1.533-.853,4.3,4.3,0,0,0,1.007-1.729,9.163,9.163,0,0,0,.372-2.859v-11.618a1.674,1.674,0,0,1,.767-1.36,3.153,3.153,0,0,1,1.949-.576,3.073,3.073,0,0,1,1.949.6,1.7,1.7,0,0,1,.767,1.337v21.853a8.643,8.643,0,0,1-3.154,6.823,10.344,10.344,0,0,1-3.482,1.89,12.94,12.94,0,0,1-4.271.6,20.927,20.927,0,0,1-2.3-.115,9.286,9.286,0,0,1-1.971-.438,10.026,10.026,0,0,1-1.84-.853,15.378,15.378,0,0,1-1.862-1.314,3.357,3.357,0,0,1-1.248-1.775,3.484,3.484,0,0,1,.066-1.775q.394-1.292,1.161-1.545a1.461,1.461,0,0,1,1.511.438,7.791,7.791,0,0,0,2.606,1.545,10.5,10.5,0,0,0,3.833.53,7.887,7.887,0,0,0,2.387-.415,6.093,6.093,0,0,0,1.73-.922,3.774,3.774,0,0,0,1.051-1.245,3.044,3.044,0,0,0,.35-1.383Z" transform="translate(-298.122 -1020.603)" fill="#394042"/>
      <path id="Path_4" data-name="Path 4" d="M438.9,1037.337a16.346,16.346,0,0,0-.175-2.547,4.811,4.811,0,0,0-.635-1.82,2.833,2.833,0,0,0-1.292-1.092,5.274,5.274,0,0,0-2.1-.364,7.939,7.939,0,0,0-1.949.227,3.5,3.5,0,0,0-1.555.841,4.086,4.086,0,0,0-1.029,1.706,8.9,8.9,0,0,0-.372,2.82v12.919a1.571,1.571,0,0,1-.767,1.342,3.732,3.732,0,0,1-1.993.569,3.067,3.067,0,0,1-1.993-.523,1.682,1.682,0,0,1-.766-1.387v-12.692a8.829,8.829,0,0,0-.854-4.367q-.854-1.455-3.395-1.456a7.942,7.942,0,0,0-1.949.227,3.351,3.351,0,0,0-1.533.841,4.213,4.213,0,0,0-1.007,1.706,8.892,8.892,0,0,0-.373,2.82v12.919a1.625,1.625,0,0,1-.767,1.365,3.521,3.521,0,0,1-2.08.546,3.124,3.124,0,0,1-1.993-.546,1.681,1.681,0,0,1-.679-1.365V1028.6a1.406,1.406,0,0,1,.657-1.251,4.043,4.043,0,0,1,2.146-.432,3.29,3.29,0,0,1,2.059.478,1.507,1.507,0,0,1,.57,1.205v2.411a8.581,8.581,0,0,1,2.168-3.23,4.823,4.823,0,0,1,3.395-1.32,6.9,6.9,0,0,1,4.358,1.251,7.167,7.167,0,0,1,2.343,3.572,10.169,10.169,0,0,1,3.132-3.435,7.889,7.889,0,0,1,4.621-1.388,9.9,9.9,0,0,1,3.219.546,8.617,8.617,0,0,1,2.847,1.615,8.189,8.189,0,0,1,2.015,2.616,8.009,8.009,0,0,1,.767,3.594v15.193a2.546,2.546,0,0,1-.329,1.3q-.328.568-1.905.614a3.815,3.815,0,0,1-2.19-.387,1.736,1.736,0,0,1-.613-1.524Z" transform="translate(-330.85 -1019.688)" fill="#394042"/>
      <path id="Path_5" data-name="Path 5" d="M508.44,1052.4a10.994,10.994,0,0,1-4.642-.91,8.855,8.855,0,0,1-3.285-2.571,11.257,11.257,0,0,1-1.971-4.027,21.344,21.344,0,0,1,0-10.511,11.961,11.961,0,0,1,1.993-4.163,9.55,9.55,0,0,1,3.307-2.753,10.032,10.032,0,0,1,4.6-1,9.128,9.128,0,0,1,4.249.91,8.079,8.079,0,0,1,2.869,2.457,10.562,10.562,0,0,1,1.643,3.594,17.334,17.334,0,0,1,.525,4.323,6.934,6.934,0,0,1-.482,2.912,1.807,1.807,0,0,1-1.8,1H503.4a9.487,9.487,0,0,0,.219,2.048,4.839,4.839,0,0,0,.81,1.82,4.307,4.307,0,0,0,1.577,1.32,5.544,5.544,0,0,0,2.518.5,6.46,6.46,0,0,0,3.088-.614,6.238,6.238,0,0,0,1.774-1.388,2.028,2.028,0,0,1,.964-.728,1.652,1.652,0,0,1,.9-.023,2.43,2.43,0,0,1,.744.341c.219.152.4.273.548.364a1.92,1.92,0,0,1,.657,1.888,4.473,4.473,0,0,1-1.249,2.366,8.881,8.881,0,0,1-2.978,2A11.161,11.161,0,0,1,508.44,1052.4Zm3.9-15.061a13.656,13.656,0,0,0-.175-2.206,5.475,5.475,0,0,0-.635-1.866,3.6,3.6,0,0,0-1.227-1.274,3.723,3.723,0,0,0-1.993-.478,4.968,4.968,0,0,0-2.54.568,4.13,4.13,0,0,0-1.489,1.456,5.553,5.553,0,0,0-.7,1.911,11.227,11.227,0,0,0-.175,1.888Z" transform="translate(-379.36 -1019.688)" fill="#394042"/>
      <path id="Path_6" data-name="Path 6" d="M569.444,1037.383a16.745,16.745,0,0,0-.175-2.57,4.836,4.836,0,0,0-.635-1.843,2.834,2.834,0,0,0-1.292-1.092,5.275,5.275,0,0,0-2.1-.364,7.945,7.945,0,0,0-1.949.227,3.354,3.354,0,0,0-1.533.842,4.221,4.221,0,0,0-1.007,1.729,9.129,9.129,0,0,0-.372,2.843v12.874a1.647,1.647,0,0,1-.767,1.342,3.185,3.185,0,0,1-1.949.569,3.1,3.1,0,0,1-1.949-.592,1.67,1.67,0,0,1-.767-1.319v-21.2a1.607,1.607,0,0,1,.81-1.365,3.409,3.409,0,0,1,1.949-.545,3.205,3.205,0,0,1,1.905.545,1.627,1.627,0,0,1,.767,1.365v2.229a13.388,13.388,0,0,1,.942-1.638,7.278,7.278,0,0,1,1.314-1.478,6.47,6.47,0,0,1,1.752-1.069,5.84,5.84,0,0,1,2.256-.409,9.94,9.94,0,0,1,3.394.546,6.97,6.97,0,0,1,2.584,1.615,7.209,7.209,0,0,1,1.664,2.706,11.238,11.238,0,0,1,.591,3.821v14.875a1.649,1.649,0,0,1-.723,1.365,3.158,3.158,0,0,1-1.949.546,3.356,3.356,0,0,1-1.993-.546,1.624,1.624,0,0,1-.767-1.365Z" transform="translate(-410.47 -1019.688)" fill="#394042"/>
      <path id="Path_7" data-name="Path 7" d="M619.672,1026.944v10.327a20.858,20.858,0,0,0,.087,2.12,3.566,3.566,0,0,0,.351,1.314,1.394,1.394,0,0,0,.766.669,3.973,3.973,0,0,0,1.336.185,3.1,3.1,0,0,0,1.577-.461q.788-.461,1.489-.784a1.38,1.38,0,0,1,1.4.023q.613.392.613,1.683a4.317,4.317,0,0,1-.482,2.144,3.884,3.884,0,0,1-1.314,1.383,6.128,6.128,0,0,1-1.95.784,13.1,13.1,0,0,1-2.431.3,11.971,11.971,0,0,1-2.716-.208,5.17,5.17,0,0,1-2.212-.991,4.992,4.992,0,0,1-1.489-2.006,8.389,8.389,0,0,1-.547-3.3v-13.186H612.4a1.737,1.737,0,0,1-1.643-.715,4.119,4.119,0,0,1-.416-2.051,3.748,3.748,0,0,1,.394-1.982,1.708,1.708,0,0,1,1.533-.6h1.883v-2.4a3.949,3.949,0,0,1,.5-2.213q.5-.737,2.3-.737,1.84,0,2.278.622a3.161,3.161,0,0,1,.438,1.821v2.9h4.555a2.411,2.411,0,0,1,1.993.622,3.529,3.529,0,0,1,.5,1.96,3.238,3.238,0,0,1-.482,2.051,2.616,2.616,0,0,1-2.19.715Z" transform="translate(-441.119 -1014.035)" fill="#394042"/>
    </g>
    <g id="Group_4" data-name="Group 4" transform="translate(137.021 1012.419)">
      <g id="Group_3" data-name="Group 3">
        <path id="Path_8" data-name="Path 8" d="M166.325,1033.456l-20.226-9.34c-1.4-.648-2.922-.283-3.428.814l-5.487,11.849c-.506,1.1.213,2.495,1.616,3.143l20.226,9.34c1.4.648,2.934.288,3.441-.808l5.474-11.854C168.447,1035.5,167.728,1034.1,166.325,1033.456Zm-10.067,2.711-3.881-1.793-.4.867,2.911,1.344a1.019,1.019,0,0,1,.57,1.314l-1.2,2.6a1.02,1.02,0,0,1-1.371.419l-.97-.448-.4.867-1.941-.9.4-.866-1.941-.9.8-1.732,3.882,1.792.4-.866-2.911-1.344a1.019,1.019,0,0,1-.57-1.314l1.2-2.6a1.019,1.019,0,0,1,1.37-.418l.971.448.4-.866,1.941.9-.4.866,1.941.9Z" transform="translate(-137.021 -1019.336)" fill="#48aeed"/>
        <g id="Group_2" data-name="Group 2" transform="translate(10.305)">
          <path id="Path_9" data-name="Path 9" d="M183.776,1026.95,165.368,1014.4c-1.277-.871-2.835-.761-3.515.237l-1.765,2.582a3.481,3.481,0,0,1,.8.248l20.226,9.34c1.4.648,2.122,2.047,1.616,3.143l-4.985,10.794,7.111-10.429C185.531,1029.319,185.052,1027.821,183.776,1026.95Z" transform="translate(-160.088 -1013.812)" fill="#48aeed"/>
        </g>
      </g>
    </g>
  </g>
</svg>
